<?xml version="1.0" encoding="utf-8"?><svg xmlns="http://www.w3.org/2000/svg" xmlns:xlink="http://www.w3.org/1999/xlink"><symbol class="abi abi-chevron-left" viewBox="0 0 16 16" id="arrow-left" xmlns="http://www.w3.org/2000/svg"><path fill-rule="evenodd" d="M11.354 1.646a.5.5 0 010 .708L5.707 8l5.647 5.646a.5.5 0 01-.708.708l-6-6a.5.5 0 010-.708l6-6a.5.5 0 01.708 0z"/></symbol><symbol class="bbi bbi-chevron-right" viewBox="0 0 16 16" id="arrow-right" xmlns="http://www.w3.org/2000/svg"><path fill-rule="evenodd" d="M4.646 1.646a.5.5 0 01.708 0l6 6a.5.5 0 010 .708l-6 6a.5.5 0 01-.708-.708L10.293 8 4.646 2.354a.5.5 0 010-.708z"/></symbol><symbol class="cbi cbi-chevron-up" viewBox="0 0 16 16" id="arrow-up" xmlns="http://www.w3.org/2000/svg"><path fill-rule="evenodd" d="M7.646 4.646a.5.5 0 01.708 0l6 6a.5.5 0 01-.708.708L8 5.707l-5.646 5.647a.5.5 0 01-.708-.708l6-6z"/></symbol><symbol viewBox="0 0 24 24" id="close" xmlns="http://www.w3.org/2000/svg"><path d="M4.293 18.293L10.586 12 4.293 5.707a1 1 0 011.414-1.414L12 10.586l6.293-6.293a1 1 0 111.414 1.414L13.414 12l6.293 6.293a1 1 0 11-1.414 1.414L12 13.414l-6.293 6.293a1 1 0 01-1.414-1.414z"/></symbol></svg>